<?xml version="1.0" encoding="UTF-8" standalone="no"?>
<!DOCTYPE svg PUBLIC "-//W3C//DTD SVG 1.1//EN"
 "http://www.w3.org/Graphics/SVG/1.1/DTD/svg11.dtd">
<!-- Generated by graphviz version 2.43.0 (0)
 -->
<!-- Title: dependency&#45;cruiser output Pages: 1 -->
<svg width="505pt" height="264pt"
 viewBox="0.00 0.00 505.00 264.00" xmlns="http://www.w3.org/2000/svg" xmlns:xlink="http://www.w3.org/1999/xlink">
<g id="graph0" class="graph" transform="scale(1 1) rotate(0) translate(4 260)">
<title>dependency&#45;cruiser output</title>
<polygon fill="white" stroke="transparent" points="-4,4 -4,-260 501,-260 501,4 -4,4"/>
<g id="clust1" class="cluster">
<title>cluster_src</title>
<path fill="#ffffff" stroke="black" stroke-width="2" d="M20,-8C20,-8 477,-8 477,-8 483,-8 489,-14 489,-20 489,-20 489,-236 489,-236 489,-242 483,-248 477,-248 477,-248 20,-248 20,-248 14,-248 8,-242 8,-236 8,-236 8,-20 8,-20 8,-14 14,-8 20,-8"/>
<text text-anchor="middle" x="248.5" y="-236.8" font-family="Helvetica,sans-Serif" font-weight="bold" font-size="9.00">src</text>
</g>
<g id="clust2" class="cluster">
<title>cluster_src/lib</title>
<path fill="#ffffff" stroke="black" stroke-width="2" d="M233,-16C233,-16 281,-16 281,-16 287,-16 293,-22 293,-28 293,-28 293,-56 293,-56 293,-62 287,-68 281,-68 281,-68 233,-68 233,-68 227,-68 221,-62 221,-56 221,-56 221,-28 221,-28 221,-22 227,-16 233,-16"/>
<text text-anchor="middle" x="257" y="-56.8" font-family="Helvetica,sans-Serif" font-weight="bold" font-size="9.00">lib</text>
</g>
<g id="clust3" class="cluster">
<title>cluster_src/script</title>
<path fill="#ffffff" stroke="black" stroke-width="2" d="M28,-26C28,-26 192,-26 192,-26 198,-26 204,-32 204,-38 204,-38 204,-96 204,-96 204,-102 198,-108 192,-108 192,-108 28,-108 28,-108 22,-108 16,-102 16,-96 16,-96 16,-38 16,-38 16,-32 22,-26 28,-26"/>
<text text-anchor="middle" x="110" y="-96.8" font-family="Helvetica,sans-Serif" font-weight="bold" font-size="9.00">script</text>
</g>
<g id="clust4" class="cluster">
<title>cluster_src/use&#45;cases</title>
<path fill="#ffffff" stroke="black" stroke-width="2" d="M224,-76C224,-76 469,-76 469,-76 475,-76 481,-82 481,-88 481,-88 481,-210 481,-210 481,-216 475,-222 469,-222 469,-222 224,-222 224,-222 218,-222 212,-216 212,-210 212,-210 212,-88 212,-88 212,-82 218,-76 224,-76"/>
<text text-anchor="middle" x="346.5" y="-210.8" font-family="Helvetica,sans-Serif" font-weight="bold" font-size="9.00">use&#45;cases</text>
</g>
<g id="clust5" class="cluster">
<title>cluster_src/use&#45;cases/run&#45;debug&#45;steps</title>
<path fill="#ffffff" stroke="black" stroke-width="2" d="M232,-84C232,-84 461,-84 461,-84 467,-84 473,-90 473,-96 473,-96 473,-184 473,-184 473,-190 467,-196 461,-196 461,-196 232,-196 232,-196 226,-196 220,-190 220,-184 220,-184 220,-96 220,-96 220,-90 226,-84 232,-84"/>
<text text-anchor="middle" x="346.5" y="-184.8" font-family="Helvetica,sans-Serif" font-weight="bold" font-size="9.00">run&#45;debug&#45;steps</text>
</g>
<!-- src/lib/logger.ts -->
<g id="node1" class="node">
<title>src/lib/logger.ts</title>
<g id="a_node1"><a xlink:href="src/lib/logger.ts" xlink:title="logger.ts">
<path fill="#ddfeff" stroke="black" d="M279,-42C279,-42 235,-42 235,-42 232,-42 229,-39 229,-36 229,-36 229,-30 229,-30 229,-27 232,-24 235,-24 235,-24 279,-24 279,-24 282,-24 285,-27 285,-30 285,-30 285,-36 285,-36 285,-39 282,-42 279,-42"/>
<text text-anchor="start" x="237" y="-30.8" font-family="Helvetica,sans-Serif" font-size="9.00">logger.ts</text>
</a>
</g>
</g>
<!-- src/script/debug.ts -->
<g id="node2" class="node">
<title>src/script/debug.ts</title>
<g id="a_node2"><a xlink:href="src/script/debug.ts" xlink:title="debug.ts">
<path fill="#ddfeff" stroke="black" d="M82,-82C82,-82 37,-82 37,-82 34,-82 31,-79 31,-76 31,-76 31,-70 31,-70 31,-67 34,-64 37,-64 37,-64 82,-64 82,-64 85,-64 88,-67 88,-70 88,-70 88,-76 88,-76 88,-79 85,-82 82,-82"/>
<text text-anchor="start" x="39" y="-70.8" font-family="Helvetica,sans-Serif" font-size="9.00">debug.ts</text>
</a>
</g>
</g>
<!-- src/script/run&#45;in&#45;docker.ts -->
<g id="node3" class="node">
<title>src/script/run&#45;in&#45;docker.ts</title>
<g id="a_node3"><a xlink:href="src/script/run-in-docker.ts" xlink:title="run&#45;in&#45;docker.ts">
<path fill="#ddfeff" stroke="black" d="M190,-82C190,-82 114,-82 114,-82 111,-82 108,-79 108,-76 108,-76 108,-70 108,-70 108,-67 111,-64 114,-64 114,-64 190,-64 190,-64 193,-64 196,-67 196,-70 196,-70 196,-76 196,-76 196,-79 193,-82 190,-82"/>
<text text-anchor="start" x="116" y="-70.8" font-family="Helvetica,sans-Serif" font-size="9.00">run&#45;in&#45;docker.ts</text>
</a>
</g>
</g>
<!-- src/script/debug.ts&#45;&gt;src/script/run&#45;in&#45;docker.ts -->
<g id="edge1" class="edge">
<title>src/script/debug.ts&#45;&gt;src/script/run&#45;in&#45;docker.ts</title>
<path fill="none" stroke="#000000" stroke-width="2" stroke-opacity="0.200000" d="M88.14,-73C92.43,-73 96.97,-73 101.57,-73"/>
<polygon fill="#000000" fill-opacity="0.200000" stroke="#000000" stroke-width="2" stroke-opacity="0.200000" points="101.85,-75.1 107.85,-73 101.85,-70.9 101.85,-75.1"/>
</g>
<!-- src/script/run&#45;in&#45;docker.ts&#45;&gt;src/lib/logger.ts -->
<g id="edge2" class="edge">
<title>src/script/run&#45;in&#45;docker.ts&#45;&gt;src/lib/logger.ts</title>
<path fill="none" stroke="#000000" stroke-width="2" stroke-opacity="0.200000" d="M176.37,-63.92C191.39,-58.09 211,-50.48 227,-44.26"/>
<polygon fill="#000000" fill-opacity="0.200000" stroke="#000000" stroke-width="2" stroke-opacity="0.200000" points="227.89,-46.17 232.72,-42.04 226.37,-42.26 227.89,-46.17"/>
</g>
<!-- src/use&#45;cases/run&#45;debug&#45;steps/factory.ts -->
<g id="node4" class="node">
<title>src/use&#45;cases/run&#45;debug&#45;steps/factory.ts</title>
<g id="a_node4"><a xlink:href="src/use-cases/run-debug-steps/factory.ts" xlink:title="factory.ts">
<path fill="#ddfeff" stroke="black" d="M280,-110C280,-110 234,-110 234,-110 231,-110 228,-107 228,-104 228,-104 228,-98 228,-98 228,-95 231,-92 234,-92 234,-92 280,-92 280,-92 283,-92 286,-95 286,-98 286,-98 286,-104 286,-104 286,-107 283,-110 280,-110"/>
<text text-anchor="start" x="236" y="-98.8" font-family="Helvetica,sans-Serif" font-size="9.00">factory.ts</text>
</a>
</g>
</g>
<!-- src/script/run&#45;in&#45;docker.ts&#45;&gt;src/use&#45;cases/run&#45;debug&#45;steps/factory.ts -->
<g id="edge3" class="edge">
<title>src/script/run&#45;in&#45;docker.ts&#45;&gt;src/use&#45;cases/run&#45;debug&#45;steps/factory.ts</title>
<path fill="none" stroke="#000000" stroke-width="2" stroke-opacity="0.200000" d="M186.16,-82.01C197.57,-85.12 210.38,-88.6 221.87,-91.72"/>
<polygon fill="#000000" fill-opacity="0.200000" stroke="#000000" stroke-width="2" stroke-opacity="0.200000" points="221.41,-93.77 227.75,-93.32 222.51,-89.72 221.41,-93.77"/>
</g>
<!-- src/use&#45;cases/run&#45;debug&#45;steps/lldb&#45;runner.ts -->
<g id="node6" class="node">
<title>src/use&#45;cases/run&#45;debug&#45;steps/lldb&#45;runner.ts</title>
<g id="a_node6"><a xlink:href="src/use-cases/run-debug-steps/lldb-runner.ts" xlink:title="lldb&#45;runner.ts">
<path fill="#ddfeff" stroke="black" d="M380,-110C380,-110 315,-110 315,-110 312,-110 309,-107 309,-104 309,-104 309,-98 309,-98 309,-95 312,-92 315,-92 315,-92 380,-92 380,-92 383,-92 386,-95 386,-98 386,-98 386,-104 386,-104 386,-107 383,-110 380,-110"/>
<text text-anchor="start" x="317" y="-98.8" font-family="Helvetica,sans-Serif" font-size="9.00">lldb&#45;runner.ts</text>
</a>
</g>
</g>
<!-- src/use&#45;cases/run&#45;debug&#45;steps/factory.ts&#45;&gt;src/use&#45;cases/run&#45;debug&#45;steps/lldb&#45;runner.ts -->
<g id="edge6" class="edge">
<title>src/use&#45;cases/run&#45;debug&#45;steps/factory.ts&#45;&gt;src/use&#45;cases/run&#45;debug&#45;steps/lldb&#45;runner.ts</title>
<path fill="none" stroke="#000000" stroke-width="2" stroke-opacity="0.200000" d="M286,-101C291.36,-101 297.08,-101 302.79,-101"/>
<polygon fill="#000000" fill-opacity="0.200000" stroke="#000000" stroke-width="2" stroke-opacity="0.200000" points="302.97,-103.1 308.97,-101 302.97,-98.9 302.97,-103.1"/>
</g>
<!-- src/use&#45;cases/run&#45;debug&#45;steps/php&#45;runner.ts -->
<g id="node7" class="node">
<title>src/use&#45;cases/run&#45;debug&#45;steps/php&#45;runner.ts</title>
<g id="a_node7"><a xlink:href="src/use-cases/run-debug-steps/php-runner.ts" xlink:title="php&#45;runner.ts">
<path fill="#ddfeff" stroke="black" d="M381,-140C381,-140 314,-140 314,-140 311,-140 308,-137 308,-134 308,-134 308,-128 308,-128 308,-125 311,-122 314,-122 314,-122 381,-122 381,-122 384,-122 387,-125 387,-128 387,-128 387,-134 387,-134 387,-137 384,-140 381,-140"/>
<text text-anchor="start" x="316" y="-128.8" font-family="Helvetica,sans-Serif" font-size="9.00">php&#45;runner.ts</text>
</a>
</g>
</g>
<!-- src/use&#45;cases/run&#45;debug&#45;steps/factory.ts&#45;&gt;src/use&#45;cases/run&#45;debug&#45;steps/php&#45;runner.ts -->
<g id="edge7" class="edge">
<title>src/use&#45;cases/run&#45;debug&#45;steps/factory.ts&#45;&gt;src/use&#45;cases/run&#45;debug&#45;steps/php&#45;runner.ts</title>
<path fill="none" stroke="#000000" stroke-width="2" stroke-opacity="0.200000" d="M283.9,-110.11C289.53,-112.07 295.46,-114.12 301,-116 304.81,-117.29 308.81,-118.63 312.78,-119.96"/>
<polygon fill="#000000" fill-opacity="0.200000" stroke="#000000" stroke-width="2" stroke-opacity="0.200000" points="312.21,-121.98 318.56,-121.87 313.53,-117.99 312.21,-121.98"/>
</g>
<!-- src/use&#45;cases/run&#45;debug&#45;steps/python&#45;runner.ts -->
<g id="node8" class="node">
<title>src/use&#45;cases/run&#45;debug&#45;steps/python&#45;runner.ts</title>
<g id="a_node8"><a xlink:href="src/use-cases/run-debug-steps/python-runner.ts" xlink:title="python&#45;runner.ts">
<path fill="#ddfeff" stroke="black" d="M388,-170C388,-170 307,-170 307,-170 304,-170 301,-167 301,-164 301,-164 301,-158 301,-158 301,-155 304,-152 307,-152 307,-152 388,-152 388,-152 391,-152 394,-155 394,-158 394,-158 394,-164 394,-164 394,-167 391,-170 388,-170"/>
<text text-anchor="start" x="309" y="-158.8" font-family="Helvetica,sans-Serif" font-size="9.00">python&#45;runner.ts</text>
</a>
</g>
</g>
<!-- src/use&#45;cases/run&#45;debug&#45;steps/factory.ts&#45;&gt;src/use&#45;cases/run&#45;debug&#45;steps/python&#45;runner.ts -->
<g id="edge8" class="edge">
<title>src/use&#45;cases/run&#45;debug&#45;steps/factory.ts&#45;&gt;src/use&#45;cases/run&#45;debug&#45;steps/python&#45;runner.ts</title>
<path fill="none" stroke="#000000" stroke-width="2" stroke-opacity="0.200000" d="M264.58,-110.22C272.26,-120.34 285.83,-136.42 301,-146 302.87,-147.18 304.84,-148.28 306.87,-149.29"/>
<polygon fill="#000000" fill-opacity="0.200000" stroke="#000000" stroke-width="2" stroke-opacity="0.200000" points="306.03,-151.22 312.36,-151.81 307.78,-147.4 306.03,-151.22"/>
</g>
<!-- src/script/run&#45;steps.ts -->
<g id="node5" class="node">
<title>src/script/run&#45;steps.ts</title>
<g id="a_node5"><a xlink:href="src/script/run-steps.ts" xlink:title="run&#45;steps.ts">
<path fill="#ddfeff" stroke="black" d="M89,-52C89,-52 30,-52 30,-52 27,-52 24,-49 24,-46 24,-46 24,-40 24,-40 24,-37 27,-34 30,-34 30,-34 89,-34 89,-34 92,-34 95,-37 95,-40 95,-40 95,-46 95,-46 95,-49 92,-52 89,-52"/>
<text text-anchor="start" x="32" y="-40.8" font-family="Helvetica,sans-Serif" font-size="9.00">run&#45;steps.ts</text>
</a>
</g>
</g>
<!-- src/script/run&#45;steps.ts&#45;&gt;src/lib/logger.ts -->
<g id="edge4" class="edge">
<title>src/script/run&#45;steps.ts&#45;&gt;src/lib/logger.ts</title>
<path fill="none" stroke="#000000" stroke-width="2" stroke-opacity="0.200000" d="M95,-41.24C130.91,-39.4 186.78,-36.54 222.37,-34.72"/>
<polygon fill="#000000" fill-opacity="0.200000" stroke="#000000" stroke-width="2" stroke-opacity="0.200000" points="222.88,-36.8 228.77,-34.39 222.67,-32.6 222.88,-36.8"/>
</g>
<!-- src/script/run&#45;steps.ts&#45;&gt;src/use&#45;cases/run&#45;debug&#45;steps/factory.ts -->
<g id="edge5" class="edge">
<title>src/script/run&#45;steps.ts&#45;&gt;src/use&#45;cases/run&#45;debug&#45;steps/factory.ts</title>
<path fill="none" stroke="#000000" stroke-width="2" stroke-opacity="0.200000" d="M87.08,-52.02C89.97,-53.71 92.69,-55.69 95,-58 105.27,-68.28 96.21,-79.5 108,-88 140.85,-111.69 189.09,-111.21 221.47,-107.3"/>
<polygon fill="#000000" fill-opacity="0.200000" stroke="#000000" stroke-width="2" stroke-opacity="0.200000" points="222.06,-109.34 227.73,-106.47 221.51,-105.17 222.06,-109.34"/>
</g>
<!-- src/use&#45;cases/run&#45;debug&#45;steps/runner.ts -->
<g id="node9" class="node">
<title>src/use&#45;cases/run&#45;debug&#45;steps/runner.ts</title>
<g id="a_node9"><a xlink:href="src/use-cases/run-debug-steps/runner.ts" xlink:title="runner.ts">
<path fill="#ddfeff" stroke="black" d="M459,-140C459,-140 413,-140 413,-140 410,-140 407,-137 407,-134 407,-134 407,-128 407,-128 407,-125 410,-122 413,-122 413,-122 459,-122 459,-122 462,-122 465,-125 465,-128 465,-128 465,-134 465,-134 465,-137 462,-140 459,-140"/>
<text text-anchor="start" x="415" y="-128.8" font-family="Helvetica,sans-Serif" font-size="9.00">runner.ts</text>
</a>
</g>
</g>
<!-- src/use&#45;cases/run&#45;debug&#45;steps/lldb&#45;runner.ts&#45;&gt;src/use&#45;cases/run&#45;debug&#45;steps/runner.ts -->
<g id="edge9" class="edge">
<title>src/use&#45;cases/run&#45;debug&#45;steps/lldb&#45;runner.ts&#45;&gt;src/use&#45;cases/run&#45;debug&#45;steps/runner.ts</title>
<path fill="none" stroke="#000000" stroke-width="2" stroke-opacity="0.200000" d="M376.46,-110.06C382.27,-111.99 388.34,-114.03 394,-116 397.57,-117.24 401.31,-118.57 405.01,-119.9"/>
<polygon fill="#000000" fill-opacity="0.200000" stroke="#000000" stroke-width="2" stroke-opacity="0.200000" points="404.41,-121.92 410.76,-121.99 405.84,-117.97 404.41,-121.92"/>
</g>
<!-- src/use&#45;cases/run&#45;debug&#45;steps/php&#45;runner.ts&#45;&gt;src/use&#45;cases/run&#45;debug&#45;steps/runner.ts -->
<g id="edge10" class="edge">
<title>src/use&#45;cases/run&#45;debug&#45;steps/php&#45;runner.ts&#45;&gt;src/use&#45;cases/run&#45;debug&#45;steps/runner.ts</title>
<path fill="none" stroke="#000000" stroke-width="2" stroke-opacity="0.200000" d="M387.2,-131C391.77,-131 396.42,-131 400.93,-131"/>
<polygon fill="#000000" fill-opacity="0.200000" stroke="#000000" stroke-width="2" stroke-opacity="0.200000" points="400.96,-133.1 406.96,-131 400.96,-128.9 400.96,-133.1"/>
</g>
<!-- src/use&#45;cases/run&#45;debug&#45;steps/python&#45;runner.ts&#45;&gt;src/use&#45;cases/run&#45;debug&#45;steps/runner.ts -->
<g id="edge11" class="edge">
<title>src/use&#45;cases/run&#45;debug&#45;steps/python&#45;runner.ts&#45;&gt;src/use&#45;cases/run&#45;debug&#45;steps/runner.ts</title>
<path fill="none" stroke="#000000" stroke-width="2" stroke-opacity="0.200000" d="M376.46,-151.94C382.27,-150.01 388.34,-147.97 394,-146 397.57,-144.76 401.31,-143.43 405.01,-142.1"/>
<polygon fill="#000000" fill-opacity="0.200000" stroke="#000000" stroke-width="2" stroke-opacity="0.200000" points="405.84,-144.03 410.76,-140.01 404.41,-140.08 405.84,-144.03"/>
</g>
</g>
</svg>
